<svg width="19" height="19" viewBox="0 0 19 19" fill="none" xmlns="http://www.w3.org/2000/svg">
<path d="M16.1424 13.3449C16.1107 13.1489 15.9877 12.9813 15.8036 12.8817L13.08 11.277L13.0576 11.2644C12.9476 11.208 12.8203 11.1789 12.6895 11.1789C12.4613 11.1789 12.2434 11.2654 12.0922 11.417L11.2883 12.2213C11.2539 12.254 11.1418 12.3013 11.1078 12.303C11.0985 12.3022 10.1724 12.2355 8.46755 10.5305C6.76572 8.82902 6.69352 7.90011 6.69295 7.90011C6.6939 7.85261 6.74064 7.74089 6.77389 7.70631L7.45941 7.02098C7.7009 6.77892 7.77329 6.37764 7.63003 6.0668L6.11611 3.21813C6.0061 2.99165 5.79235 2.85181 5.55523 2.85181C5.38746 2.85181 5.22558 2.92135 5.09904 3.0477L3.23039 4.91217C3.05122 5.09039 2.89694 5.40199 2.86331 5.65279C2.84697 5.77268 2.51542 8.63446 6.43892 12.5585C9.76981 15.889 12.3671 16.1478 13.0844 16.1478C13.2386 16.1478 13.3285 16.1368 13.3458 16.1343C13.5958 16.1009 13.9071 15.947 14.0851 15.7686L15.9522 13.9016C16.1046 13.7485 16.1741 13.5461 16.1424 13.3449Z" fill="black"/>
</svg>
