<svg width="16" height="16" viewBox="0 0 16 16" fill="none" xmlns="http://www.w3.org/2000/svg">
<g clip-path="url(#clip0_56_66)">
<path d="M15.6663 4.33766C15.5781 4.01823 15.4022 3.72618 15.1561 3.49078C14.91 3.25539 14.6024 3.08493 14.2641 2.99649C13.0121 2.66708 7.99592 2.66708 7.99592 2.66708C5.9043 2.64346 3.81326 2.74825 1.73616 2.9808C1.39772 3.0757 1.09061 3.25009 0.84381 3.4875C0.597014 3.72491 0.418671 4.0175 0.325621 4.33766C0.101217 5.54703 -0.00771877 6.77285 0.000112035 8.00038C-0.00825577 9.22798 0.100684 10.4539 0.325621 11.6632C0.416756 11.9825 0.594714 12.274 0.842016 12.5092C1.08932 12.7443 1.39745 12.9149 1.73616 13.0043C3.00481 13.3337 7.99592 13.3337 7.99592 13.3337C10.0903 13.3574 12.1842 13.2526 14.2641 13.02C14.6024 12.9316 14.91 12.7611 15.1561 12.5257C15.4022 12.2903 15.5781 11.9983 15.6663 11.6789C15.8964 10.4701 16.0081 9.24405 16.0001 8.01612C16.0174 6.78265 15.9055 5.55056 15.6663 4.33766ZM6.40178 10.2828V5.71806L10.575 8.00038L6.40178 10.2828Z" fill="black"/>
</g>
<defs>
<clipPath id="clip0_56_66">
<rect width="16" height="16" fill="white"/>
</clipPath>
</defs>
</svg>
