<svg width="37" height="37" viewBox="0 0 37 37" fill="none" xmlns="http://www.w3.org/2000/svg">
<path d="M11.3056 19.3583H7.82758V31.5965H11.3056" stroke="white" stroke-width="2" stroke-linecap="round" stroke-linejoin="round"/>
<path d="M11.2239 19.3583H25.7165V31.5965H11.2239V19.3583Z" stroke="white" stroke-width="2" stroke-linecap="round" stroke-linejoin="round"/>
<path d="M25.7464 19.3341L29.1673 19.3644L29.0584 31.6022L25.6374 31.5719" stroke="white" stroke-width="2" stroke-linecap="round" stroke-linejoin="round"/>
<path d="M21.9379 19.3583H25.659V31.5965H21.9379" stroke="white" stroke-width="2" stroke-linecap="round" stroke-linejoin="round"/>
<path d="M20.4572 7.77375C20.7422 7.19759 21.142 6.68577 21.632 6.26972C22.122 5.85368 22.6919 5.54218 23.3066 5.35437C23.9214 5.16655 24.568 5.10639 25.2069 5.17756C25.8457 5.24873 26.4633 5.44974 27.0216 5.76825C28.0132 6.3839 28.7453 7.34104 29.0798 8.45921C29.4144 9.57738 29.3283 10.7793 28.8379 11.8384C28.4218 12.6237 27.7819 13.2677 26.9993 13.6888C26.2167 14.1099 25.3267 14.2892 24.4422 14.2039C23.5144 14.1148 22.631 13.7637 21.8953 13.1914C21.1596 12.6192 20.6018 11.8494 20.2872 10.9721" stroke="white" stroke-width="2" stroke-linecap="round" stroke-linejoin="round"/>
<path d="M18.3335 7.78649L9.66729 7.73767L7.70834 9.72539L9.73101 11.7357L10.8831 10.5661L12.3112 11.9855L13.9243 10.3482L15.2332 11.6489L16.7574 11.7753L17.9101 10.6062L18.5051 11.1972" stroke="white" stroke-width="2" stroke-linecap="round" stroke-linejoin="round"/>
<path d="M26.2496 10.6836C26.9225 10.6836 27.4679 10.1359 27.4679 9.46016C27.4679 8.78446 26.9225 8.23669 26.2496 8.23669C25.5767 8.23669 25.0312 8.78446 25.0312 9.46016C25.0312 10.1359 25.5767 10.6836 26.2496 10.6836Z" stroke="white" stroke-width="2" stroke-linecap="round" stroke-linejoin="round"/>
<path d="M3.08334 3.08337H33.9167V33.9167H3.08334V3.08337Z" stroke="white" stroke-width="2" stroke-linecap="round" stroke-linejoin="round"/>
<path d="M15.4167 19.0139V17.4722C15.4167 17.4722 15.4167 15.9305 17.2336 15.9305H19.6563" stroke="white" stroke-width="2" stroke-linecap="round" stroke-linejoin="round"/>
<path d="M21.5833 19.0139V17.4722C21.5833 17.4722 21.5833 15.9305 19.7664 15.9305H17.3438" stroke="white" stroke-width="2" stroke-linecap="round" stroke-linejoin="round"/>
</svg>
