<svg width="39" height="39" viewBox="0 0 39 39" fill="none" xmlns="http://www.w3.org/2000/svg">
<path d="M31.6875 33.5154H31.6873L24.3738 33.5145C23.8892 33.5138 23.4246 33.321 23.0819 32.9783C22.7393 32.6356 22.5465 32.171 22.546 31.6863V24.3737C22.5458 24.2121 22.4816 24.0572 22.3673 23.943C22.2531 23.8287 22.0982 23.7645 21.9366 23.7643H17.0616C16.9 23.7645 16.7451 23.8287 16.6309 23.943C16.5167 24.0572 16.4524 24.2121 16.4522 24.3737V31.6863C16.4517 32.171 16.2589 32.6356 15.9162 32.9784C15.5735 33.3211 15.1089 33.5139 14.6243 33.5145L7.3128 33.5154C7.0727 33.5155 6.83494 33.4683 6.61309 33.3764C6.39125 33.2846 6.18967 33.1499 6.01988 32.9802C5.85009 32.8104 5.7154 32.6088 5.62352 32.387C5.53163 32.1652 5.48435 31.9274 5.48438 31.6873V17.6015C5.48459 17.3469 5.53791 17.095 5.64094 16.8621C5.74397 16.6292 5.89444 16.4204 6.08274 16.2489L18.2692 5.16827C18.605 4.86078 19.0437 4.69021 19.499 4.69019C19.9543 4.69016 20.3931 4.86067 20.7289 5.16812L32.9173 16.249C33.1055 16.4205 33.256 16.6293 33.359 16.8622C33.462 17.0951 33.5154 17.3469 33.5156 17.6016V31.6873C33.5156 31.9274 33.4684 32.1651 33.3765 32.3869C33.2846 32.6088 33.15 32.8103 32.9802 32.9801C32.8105 33.1498 32.6089 33.2845 32.3871 33.3763C32.1653 33.4682 31.9276 33.5155 31.6875 33.5154V33.5154ZM17.0616 22.5456H21.9366C22.4213 22.5461 22.886 22.7389 23.2287 23.0816C23.5714 23.4243 23.7642 23.889 23.7647 24.3737V31.6864C23.7649 31.8479 23.8291 32.0028 23.9434 32.117C24.0576 32.2312 24.2124 32.2955 24.374 32.2957L31.6875 32.2967C31.8491 32.2967 32.0041 32.2325 32.1184 32.1182C32.2327 32.0039 32.2969 31.8489 32.2969 31.6873V17.6016C32.2968 17.5167 32.279 17.4327 32.2446 17.3551C32.2103 17.2774 32.1601 17.2078 32.0974 17.1506L19.9091 6.06991C19.7972 5.96744 19.6509 5.91062 19.4991 5.91065C19.3473 5.91068 19.201 5.96755 19.0891 6.07006L6.90263 17.1507C6.83983 17.2078 6.78965 17.2774 6.7553 17.3551C6.72094 17.4327 6.70317 17.5166 6.70312 17.6015V31.6873C6.70313 31.7673 6.7189 31.8466 6.74953 31.9205C6.78017 31.9945 6.82507 32.0617 6.88167 32.1183C6.93827 32.1748 7.00546 32.2197 7.07941 32.2503C7.15336 32.281 7.23262 32.2967 7.31265 32.2967L14.6241 32.2957C14.7857 32.2955 14.9406 32.2313 15.0548 32.117C15.169 32.0028 15.2333 31.8479 15.2335 31.6863V24.3737C15.234 23.889 15.4268 23.4243 15.7695 23.0816C16.1123 22.7389 16.5769 22.5461 17.0616 22.5456Z" fill="white"/>
</svg>
