<svg width="32" height="32" viewBox="0 0 32 32" fill="none" xmlns="http://www.w3.org/2000/svg">
<path d="M5.36 31H4.64V28H5.36V31ZM3.36 31H2.64V28H3.36V31ZM9 26.36H0V25.64H9V26.36ZM5.36 24H4.64V4.00001C4.64 3.25001 5.25 2.64001 6 2.64001H21C21.75 2.64001 22.36 3.25001 22.36 4.00001L22.359 7.64001H23.639V3.00001C23.639 2.09601 22.904 1.36001 21.999 1.36001H5C4.096 1.36001 3.36 2.09601 3.36 3.00001V24H2.64V3.00001C2.64 1.69901 3.699 0.640015 5 0.640015H22C23.302 0.640015 24.36 1.69901 24.36 3.00001V7.83401L31.232 13.724C31.238 13.729 31.244 13.735 31.25 13.74C31.263 13.752 31.274 13.765 31.285 13.78C31.296 13.795 31.285 13.78 31.286 13.781C31.328 13.836 31.354 13.903 31.359 13.976C31.359 13.985 31.36 13.995 31.36 14.004V16C31.36 16.199 31.199 16.36 31 16.36H15C14.801 16.36 14.64 16.199 14.64 16V14.003C14.64 13.994 14.64 13.985 14.64 13.977C14.64 13.977 14.64 13.977 14.64 13.976C14.645 13.905 14.67 13.839 14.71 13.785C14.724 13.767 14.739 13.75 14.756 13.734C14.759 13.732 14.762 13.729 14.765 13.726L21.637 7.83501L21.64 4.00001C21.64 3.64701 21.353 3.36001 21 3.36001H6C5.647 3.36001 5.36 3.64701 5.36 4.00001V24ZM15.36 15.64H30.64V14.36H15.36V15.64ZM15.973 13.64H30.026L23.867 8.36001H22.132L15.973 13.64ZM26 27.36C25.801 27.36 25.64 27.199 25.64 27V26C25.64 25.801 25.801 25.64 26 25.64C26.199 25.64 26.36 25.801 26.36 26V27C26.36 27.199 26.199 27.36 26 27.36ZM20 27.36C19.801 27.36 19.64 27.199 19.64 27V26C19.64 25.801 19.801 25.64 20 25.64C20.199 25.64 20.36 25.801 20.36 26V27C20.36 27.199 20.199 27.36 20 27.36ZM29 24.36C28.801 24.36 28.64 24.199 28.64 24V23C28.64 22.801 28.801 22.64 29 22.64C29.199 22.64 29.36 22.801 29.36 23V24C29.36 24.199 29.199 24.36 29 24.36ZM26 24.36C25.801 24.36 25.64 24.199 25.64 24V21C25.64 20.801 25.801 20.64 26 20.64C26.199 20.64 26.36 20.801 26.36 21V24C26.36 24.199 26.199 24.36 26 24.36ZM23 24.36C22.801 24.36 22.64 24.199 22.64 24V23C22.64 22.801 22.801 22.64 23 22.64C23.199 22.64 23.36 22.801 23.36 23V24C23.36 24.199 23.199 24.36 23 24.36ZM20 24.36C19.801 24.36 19.64 24.199 19.64 24V21C19.64 20.801 19.801 20.64 20 20.64C20.199 20.64 20.36 20.801 20.36 21V24C20.36 24.199 20.199 24.36 20 24.36ZM17 24.36C16.801 24.36 16.64 24.199 16.64 24V23C16.64 22.801 16.801 22.64 17 22.64C17.199 22.64 17.36 22.801 17.36 23V24C17.36 24.199 17.199 24.36 17 24.36ZM29 21.36C28.801 21.36 28.64 21.199 28.64 21V18C28.64 17.801 28.801 17.64 29 17.64C29.199 17.64 29.36 17.801 29.36 18V21C29.36 21.199 29.199 21.36 29 21.36ZM23 21.36C22.801 21.36 22.64 21.199 22.64 21V18C22.64 17.801 22.801 17.64 23 17.64C23.199 17.64 23.36 17.801 23.36 18V21C23.36 21.199 23.199 21.36 23 21.36ZM17 21.36C16.801 21.36 16.64 21.199 16.64 21V18C16.64 17.801 16.801 17.64 17 17.64C17.199 17.64 17.36 17.801 17.36 18V21C17.36 21.199 17.199 21.36 17 21.36ZM26 19.36C25.801 19.36 25.64 19.199 25.64 19V18C25.64 17.801 25.801 17.64 26 17.64C26.199 17.64 26.36 17.801 26.36 18V19C26.36 19.199 26.199 19.36 26 19.36ZM20 19.36C19.801 19.36 19.64 19.199 19.64 19V18C19.64 17.801 19.801 17.64 20 17.64C20.199 17.64 20.36 17.801 20.36 18V19C20.36 19.199 20.199 19.36 20 19.36Z" fill="white"/>
</svg>
