<svg width="23" height="23" viewBox="0 0 23 23" fill="none" xmlns="http://www.w3.org/2000/svg">
<g clip-path="url(#clip0_15_24)">
<path d="M21.5625 18.6875H15.8125C15.4313 18.6875 15.0656 18.839 14.796 19.1085C14.5265 19.3781 14.375 19.7438 14.375 20.125V23H23V20.125C23 19.7438 22.8485 19.3781 22.579 19.1085C22.3094 18.839 21.9437 18.6875 21.5625 18.6875ZM7.1875 18.6875H1.4375C1.05625 18.6875 0.690618 18.839 0.421034 19.1085C0.15145 19.3781 0 19.7438 0 20.125L0 23H8.625V20.125C8.625 19.7438 8.47355 19.3781 8.20397 19.1085C7.93438 18.839 7.56875 18.6875 7.1875 18.6875ZM7.1875 4.3125C7.1875 5.45625 7.64185 6.55315 8.4506 7.3619C9.25935 8.17065 10.3563 8.625 11.5 8.625C12.6437 8.625 13.7406 8.17065 14.5494 7.3619C15.3581 6.55315 15.8125 5.45625 15.8125 4.3125C15.8125 3.16875 15.3581 2.07185 14.5494 1.2631C13.7406 0.454351 12.6437 0 11.5 0C10.3563 0 9.25935 0.454351 8.4506 1.2631C7.64185 2.07185 7.1875 3.16875 7.1875 4.3125ZM0 12.9375C0 14.0812 0.454351 15.1781 1.2631 15.9869C2.07185 16.7956 3.16875 17.25 4.3125 17.25C5.45625 17.25 6.55315 16.7956 7.3619 15.9869C8.17065 15.1781 8.625 14.0812 8.625 12.9375C8.625 11.7938 8.17065 10.6969 7.3619 9.8881C6.55315 9.07935 5.45625 8.625 4.3125 8.625C3.16875 8.625 2.07185 9.07935 1.2631 9.8881C0.454351 10.6969 0 11.7938 0 12.9375H0ZM14.375 12.9375C14.375 14.0812 14.8294 15.1781 15.6381 15.9869C16.4469 16.7956 17.5438 17.25 18.6875 17.25C19.8312 17.25 20.9281 16.7956 21.7369 15.9869C22.5456 15.1781 23 14.0812 23 12.9375C23 11.7938 22.5456 10.6969 21.7369 9.8881C20.9281 9.07935 19.8312 8.625 18.6875 8.625C17.5438 8.625 16.4469 9.07935 15.6381 9.8881C14.8294 10.6969 14.375 11.7938 14.375 12.9375Z" fill="white"/>
</g>
<defs>
<clipPath id="clip0_15_24">
<rect width="23" height="23" fill="white"/>
</clipPath>
</defs>
</svg>
