<svg width="31" height="31" viewBox="0 0 31 31" fill="none" xmlns="http://www.w3.org/2000/svg">
<path d="M14.0469 7.75C14.0469 7.87846 13.9958 8.00167 13.905 8.09251C13.8142 8.18334 13.691 8.23438 13.5625 8.23438H11.625C11.4965 8.23438 11.3733 8.18334 11.2825 8.09251C11.1917 8.00167 11.1406 7.87846 11.1406 7.75C11.1406 7.62154 11.1917 7.49833 11.2825 7.4075C11.3733 7.31666 11.4965 7.26562 11.625 7.26562H13.5625C13.691 7.26562 13.8142 7.31666 13.905 7.4075C13.9958 7.49833 14.0469 7.62154 14.0469 7.75ZM20.1984 23.6617L20.6707 26.9191C20.6956 27.1267 20.6772 27.3371 20.6168 27.5372C20.5564 27.7372 20.4552 27.9226 20.3195 28.0816C20.1846 28.2383 20.0173 28.3639 19.8291 28.4496C19.641 28.5353 19.4365 28.5791 19.2297 28.5781H11.7703C11.5635 28.5791 11.359 28.5353 11.1709 28.4496C10.9827 28.3639 10.8154 28.2383 10.6805 28.0816C10.5448 27.9226 10.4436 27.7372 10.3832 27.5372C10.3228 27.3371 10.3044 27.1267 10.3293 26.9191L10.8016 23.6617C8.87829 22.7655 7.25057 21.3393 6.10948 19.5504C4.96838 17.7616 4.36126 15.6843 4.35938 13.5625C4.35937 13.434 4.41041 13.3108 4.50125 13.22C4.59208 13.1292 4.71529 13.0781 4.84375 13.0781H7.26562V4.84375C7.26562 4.45836 7.41872 4.08875 7.69124 3.81624C7.96375 3.54372 8.33336 3.39063 8.71875 3.39062H22.2812C22.6666 3.39062 23.0363 3.54372 23.3088 3.81624C23.5813 4.08875 23.7344 4.45836 23.7344 4.84375V13.0781H26.1562C26.2847 13.0781 26.4079 13.1292 26.4988 13.22C26.5896 13.3108 26.6406 13.434 26.6406 13.5625C26.6387 15.6843 26.0316 17.7616 24.8905 19.5504C23.7494 21.3393 22.1217 22.7655 20.1984 23.6617V23.6617ZM8.23438 13.0781H22.7656V4.84375C22.7656 4.71529 22.7146 4.59208 22.6238 4.50125C22.5329 4.41041 22.4097 4.35938 22.2812 4.35938H8.71875C8.59029 4.35938 8.46708 4.41041 8.37624 4.50125C8.28541 4.59208 8.23438 4.71529 8.23438 4.84375V13.0781ZM19.2781 24.0492C16.8349 24.9214 14.1651 24.9214 11.7219 24.0492L11.298 27.0523C11.2847 27.121 11.2876 27.1917 11.3066 27.259C11.3255 27.3263 11.3599 27.3882 11.407 27.4398C11.4514 27.493 11.507 27.5358 11.5698 27.5651C11.6326 27.5944 11.701 27.6095 11.7703 27.6094H19.2297C19.299 27.6095 19.3674 27.5944 19.4302 27.5651C19.493 27.5358 19.5486 27.493 19.593 27.4398C19.6401 27.3882 19.6745 27.3263 19.6934 27.259C19.7124 27.1917 19.7153 27.121 19.702 27.0523L19.2781 24.0492ZM25.6598 14.0469H5.34023C5.46764 16.6556 6.59366 19.1154 8.48502 20.9166C10.3764 22.7179 12.8882 23.7226 15.5 23.7226C18.1118 23.7226 20.6236 22.7179 22.515 20.9166C24.4063 19.1154 25.5324 16.6556 25.6598 14.0469V14.0469Z" fill="white"/>
</svg>
