<svg width="42" height="41" viewBox="0 0 42 41" fill="none" xmlns="http://www.w3.org/2000/svg">
<g clip-path="url(#clip0_15_75)">
<path d="M16.1096 33.9326H16.0072C15.4335 33.9331 14.8834 34.1559 14.478 34.5522C14.0725 34.9485 13.8449 35.4857 13.8451 36.0458V40.5063C13.8451 40.6196 13.8912 40.7282 13.9733 40.8083C14.0553 40.8884 14.1666 40.9334 14.2826 40.9334C14.3987 40.9334 14.5099 40.8884 14.592 40.8083C14.674 40.7282 14.7201 40.6196 14.7201 40.5063V36.0458C14.7206 35.7127 14.8563 35.3934 15.0976 35.1579C15.3389 34.9223 15.666 34.7898 16.0072 34.7893H16.1096C16.4508 34.7898 16.778 34.9223 17.0192 35.1579C17.2605 35.3934 17.3963 35.7127 17.3967 36.0458V40.5063C17.3967 40.6196 17.4428 40.7282 17.5249 40.8083C17.6069 40.8884 17.7182 40.9334 17.8342 40.9334C17.9503 40.9334 18.0616 40.8884 18.1436 40.8083C18.2257 40.7282 18.2717 40.6196 18.2717 40.5063V36.0458C18.272 35.4857 18.0443 34.9485 17.6389 34.5522C17.2334 34.1559 16.6834 33.9331 16.1096 33.9326ZM21.0516 33.9326H20.9484C20.3747 33.9333 19.8248 34.1562 19.4194 34.5525C19.014 34.9487 18.7862 35.4858 18.7862 36.0458V40.5063C18.7862 40.6196 18.8323 40.7282 18.9144 40.8083C18.9964 40.8884 19.1077 40.9334 19.2237 40.9334C19.3398 40.9334 19.4511 40.8884 19.5331 40.8083C19.6152 40.7282 19.6612 40.6196 19.6612 40.5063V36.0458C19.6617 35.7127 19.7975 35.3934 20.0387 35.1579C20.28 34.9223 20.6071 34.7898 20.9484 34.7893H21.0516C21.3928 34.7898 21.72 34.9223 21.9612 35.1579C22.2025 35.3934 22.3383 35.7127 22.3387 36.0458V40.5063C22.3387 40.6196 22.3848 40.7282 22.4669 40.8083C22.5489 40.8884 22.6602 40.9334 22.7762 40.9334C22.8923 40.9334 23.0036 40.8884 23.0856 40.8083C23.1677 40.7282 23.2137 40.6196 23.2137 40.5063V36.0458C23.2137 35.4858 22.986 34.9487 22.5806 34.5525C22.1752 34.1562 21.6253 33.9333 21.0516 33.9326ZM25.9927 33.9326H25.8904C25.3166 33.9331 24.7666 34.1559 24.3611 34.5522C23.9557 34.9485 23.728 35.4857 23.7282 36.0458V40.5063C23.7282 40.6196 23.7743 40.7282 23.8564 40.8083C23.9384 40.8884 24.0497 40.9334 24.1657 40.9334C24.2818 40.9334 24.3931 40.8884 24.4751 40.8083C24.5572 40.7282 24.6032 40.6196 24.6032 40.5063V36.0458C24.6037 35.7127 24.7395 35.3934 24.9807 35.1579C25.222 34.9223 25.5491 34.7898 25.8904 34.7893H25.9927C26.334 34.7898 26.6611 34.9223 26.9024 35.1579C27.1437 35.3934 27.2794 35.7127 27.2799 36.0458V40.5063C27.2799 40.6196 27.326 40.7282 27.408 40.8083C27.4901 40.8884 27.6013 40.9334 27.7174 40.9334C27.8334 40.9334 27.9447 40.8884 28.0267 40.8083C28.1088 40.7282 28.1549 40.6196 28.1549 40.5063V36.0458C28.1551 35.4857 27.9275 34.9485 27.522 34.5522C27.1166 34.1559 26.5665 33.9331 25.9927 33.9326Z" fill="white"/>
<path d="M29.806 28.5735C30.2525 27.4895 30.4827 26.3321 30.4841 25.1637C30.4841 22.9429 28.7893 19.8884 25.4476 16.095C25.4105 16.0513 25.3649 16.0153 25.3134 15.989C25.2619 15.9628 25.2055 15.9468 25.1476 15.942C25.0897 15.9372 25.0313 15.9438 24.976 15.9613C24.9207 15.9787 24.8696 16.0068 24.8255 16.0438C24.7814 16.0808 24.7454 16.126 24.7194 16.1768C24.6934 16.2275 24.6781 16.2828 24.6743 16.3394C24.6704 16.3961 24.6782 16.4528 24.6971 16.5065C24.716 16.5602 24.7457 16.6096 24.7844 16.6519C27.9405 20.2394 29.6091 23.1786 29.6091 25.1637C29.6089 26.3342 29.3557 27.4914 28.8663 28.5599H13.132C12.6421 27.4915 12.389 26.3342 12.3891 25.1637C12.3891 21.015 19.4539 14.2056 21 12.7655C21.4926 13.2242 22.5488 14.2287 23.7484 15.5116C23.8277 15.591 23.9354 15.6371 24.0489 15.6403C24.1624 15.6435 24.2728 15.6035 24.3566 15.5288C24.4404 15.454 24.4912 15.3504 24.4982 15.2397C24.5052 15.1291 24.4679 15.0202 24.3941 14.9359C23.4316 13.9109 22.5759 13.0696 22.0036 12.5255C23.4789 12.3023 24.8321 11.5943 25.8394 10.5186C26.8466 9.44292 27.4477 8.06389 27.5433 6.60949C27.5541 6.50343 27.5239 6.39725 27.4586 6.31181C27.3934 6.22636 27.2977 6.16783 27.1905 6.14771C27.0833 6.12759 26.9722 6.14733 26.8792 6.20307C26.7861 6.2588 26.7177 6.34649 26.6875 6.44891C26.4388 7.18796 26.0065 7.85541 25.4293 8.3917C24.852 8.92798 24.1477 9.31643 23.3793 9.52238C22.6108 9.72832 21.8021 9.74536 21.0253 9.57196C20.2484 9.39857 19.5277 9.04014 18.9272 8.52866C18.3268 8.01717 17.8655 7.36855 17.5843 6.64066C17.3032 5.91277 17.211 5.12826 17.316 4.35714C17.421 3.58601 17.7199 2.85225 18.1861 2.22133C18.6523 1.59042 19.2712 1.08197 19.9876 0.741367C20.083 0.69564 20.1581 0.617567 20.1989 0.521734C20.2396 0.4259 20.2433 0.318861 20.2091 0.220614C20.1749 0.122366 20.1052 0.0396293 20.0131 -0.0121395C19.921 -0.0639083 19.8127 -0.0811682 19.7085 -0.060695C18.2027 0.236909 16.852 1.04182 15.8926 2.21325C14.9332 3.38468 14.4262 4.84808 14.4603 6.3475C14.4944 7.84691 15.0674 9.2869 16.0791 10.4156C17.0908 11.5443 18.4768 12.29 19.9946 12.522C17.8281 14.572 11.5141 20.9245 11.5141 25.1637C11.5158 26.3322 11.7463 27.4895 12.1931 28.5735C11.8499 28.6056 11.5326 28.7657 11.3074 29.0206C11.0821 29.2755 10.9665 29.6055 10.9844 29.9416C11.0023 30.2777 11.1525 30.5941 11.4037 30.8248C11.6548 31.0555 11.9875 31.1826 12.3323 31.1796H12.397V40.5037C12.397 40.6169 12.4431 40.7256 12.5251 40.8057C12.6072 40.8858 12.7185 40.9308 12.8345 40.9308C12.9505 40.9308 13.0618 40.8858 13.1439 40.8057C13.2259 40.7256 13.272 40.6169 13.272 40.5037V32.9153H27.7174C27.8334 32.9153 27.9447 32.8703 28.0267 32.7902C28.1088 32.7101 28.1549 32.6014 28.1549 32.4882C28.1549 32.3749 28.1088 32.2663 28.0267 32.1862C27.9447 32.1061 27.8334 32.0611 27.7174 32.0611H13.272V31.177H14.2826C14.3987 31.177 14.5099 31.132 14.592 31.0519C14.674 30.9719 14.7201 30.8632 14.7201 30.75C14.7201 30.6367 14.674 30.5281 14.592 30.448C14.5099 30.3679 14.3987 30.3229 14.2826 30.3229H12.3323C12.2693 30.3255 12.2063 30.3157 12.1473 30.294C12.0883 30.2723 12.0344 30.2392 11.9889 30.1966C11.9433 30.154 11.9071 30.1029 11.8823 30.0463C11.8576 29.9897 11.8448 29.9287 11.8448 29.8672C11.8448 29.8056 11.8576 29.7447 11.8823 29.6881C11.9071 29.6315 11.9433 29.5803 11.9889 29.5377C12.0344 29.4952 12.0883 29.462 12.1473 29.4403C12.2063 29.4186 12.2693 29.4088 12.3323 29.4115H29.6678C29.7308 29.4088 29.7937 29.4186 29.8527 29.4403C29.9117 29.462 29.9656 29.4952 30.0111 29.5377C30.0567 29.5803 30.0929 29.6315 30.1177 29.6881C30.1425 29.7447 30.1552 29.8056 30.1552 29.8672C30.1552 29.9287 30.1425 29.9897 30.1177 30.0463C30.0929 30.1029 30.0567 30.154 30.0111 30.1966C29.9656 30.2392 29.9117 30.2723 29.8527 30.294C29.7937 30.3157 29.7308 30.3255 29.6678 30.3229H16.0589C15.9428 30.3229 15.8316 30.3679 15.7495 30.448C15.6675 30.5281 15.6214 30.6367 15.6214 30.75C15.6214 30.8632 15.6675 30.9719 15.7495 31.0519C15.8316 31.132 15.9428 31.177 16.0589 31.177H28.7263V40.5037C28.7263 40.6169 28.7723 40.7256 28.8544 40.8057C28.9364 40.8858 29.0477 40.9308 29.1638 40.9308C29.2798 40.9308 29.3911 40.8858 29.4731 40.8057C29.5552 40.7256 29.6013 40.6169 29.6013 40.5037V31.177H29.6678C30.0125 31.1798 30.3449 31.0525 30.5959 30.8218C30.8468 30.591 30.9968 30.2747 31.0147 29.9386C31.0325 29.6025 30.9168 29.2727 30.6916 29.0179C30.4664 28.7631 30.1492 28.603 29.806 28.571V28.5735ZM15.3318 6.20974C15.3328 5.42879 15.5026 4.65684 15.8301 3.94431C16.1576 3.23179 16.6354 2.59472 17.2323 2.07472C16.5317 3.19952 16.2618 4.53014 16.4705 5.83065C16.6791 7.13117 17.3527 8.31755 18.372 9.17945C19.3912 10.0414 20.6901 10.5231 22.0385 10.5392C23.3869 10.5554 24.6976 10.1049 25.7381 9.26766C25.0654 10.2611 24.0826 11.0164 22.9355 11.4215C21.7884 11.8267 20.538 11.8601 19.3699 11.5168C18.2018 11.1736 17.1781 10.4719 16.4507 9.51597C15.7233 8.55999 15.3309 7.40059 15.3318 6.20974Z" fill="white"/>
</g>
<defs>
<clipPath id="clip0_15_75">
<rect width="42" height="41" fill="white"/>
</clipPath>
</defs>
</svg>
