<svg width="32" height="32" viewBox="0 0 32 32" fill="none" xmlns="http://www.w3.org/2000/svg">
<path d="M17.6667 9.33333C17.6667 10.0697 17.0697 10.6667 16.3333 10.6667C15.5969 10.6667 15 10.0697 15 9.33333C15 8.59696 15.5969 8 16.3333 8C17.0697 8 17.6667 8.59696 17.6667 9.33333Z" fill="white"/>
<path d="M15.3333 13V19.6667C15.3333 20.2189 15.7811 20.6667 16.3333 20.6667C16.8856 20.6667 17.3333 20.2189 17.3333 19.6667V13C17.3333 12.4477 16.8856 12 16.3333 12C15.7811 12 15.3333 12.4477 15.3333 13Z" fill="white"/>
<path d="M5.33334 5.99996C5.33334 4.15901 6.82572 2.66663 8.66667 2.66663H24C25.8409 2.66663 27.3333 4.15901 27.3333 5.99996V25C27.3333 25.5522 26.8856 26 26.3333 26H7.33334C7.33334 26.7364 7.9303 27.3333 8.66667 27.3333H26.3333C26.8856 27.3333 27.3333 27.781 27.3333 28.3333C27.3333 28.8856 26.8856 29.3333 26.3333 29.3333H8.66667C6.82572 29.3333 5.33334 27.8409 5.33334 26V5.99996ZM25.3333 24V5.99996C25.3333 5.26359 24.7364 4.66663 24 4.66663H8.66667C7.9303 4.66663 7.33334 5.26359 7.33334 5.99996V24H25.3333Z" fill="white"/>
</svg>
